<svg id="ALDI_iOS_APP_Icon" data-name="ALDI iOS APP Icon" xmlns="http://www.w3.org/2000/svg" width="1024" height="1024" viewBox="0 0 1024 1024">
  <rect id="BG" width="1024" height="1024" rx="230" fill="#fff"/>
  <g id="ALDI_Nord_Logo_2021_sRGB" transform="translate(199.414 184.24)">
    <g id="Background">
      <rect id="White_Border" data-name="White Border" width="624.53" height="654.556" fill="#fff"/>
    </g>
    <g id="ALDI_Nord_Logo_2021" data-name="ALDI Nord Logo 2021">
      <g id="Logo">
        <rect id="Rechteck_2103" data-name="Rechteck 2103" width="624.53" height="654.556" fill="none"/>
        <path id="Pfad_1938" data-name="Pfad 1938" d="M606.183,636.206V5.669H5.669V636.206Zm-24.023-24.019H29.689V29.691H582.16v582.5Z" transform="translate(6.34 6.341)" fill="#c51718"/>
        <path id="Pfad_1939" data-name="Pfad 1939" d="M31.181,218.268H523.6V344.374H31.181V218.268Z" transform="translate(34.875 244.127)" fill="#202b78"/>
        <path id="Pfad_1940" data-name="Pfad 1940" d="M454.786,321.438V225.354H411.593v96.084Zm-52.9-48.034A47.876,47.876,0,0,0,354.2,225.354H290.365v96.084H354.2A47.867,47.867,0,0,0,401.891,273.4Zm-39.668-.008c0,11.536-8.734,20.878-19.521,20.878h-9.247V252.521h9.26c10.787,0,19.509,9.347,19.509,20.875Zm-161.75,48.042h81.575V293.678H244.334V225.354H200.473Zm-49.224,0H194.8l-49.214-96.084H101.656L52.441,321.438h43.55l4.629-10.1h46l4.63,10.1ZM133.7,286.049h-20.15l9.825-21.325L133.7,286.049Z" transform="translate(58.653 252.052)" fill="#fff"/>
        <path id="Pfad_1941" data-name="Pfad 1941" d="M428.808,415.507a77.274,77.274,0,0,0,9.877-39.337c-.306-16.137-6.984-26.514-16.116-40.218L289.146,135.622l21.714-32.763L459.369,324.947c12.224,18.264,19.215,31.9,19.7,52.267a91.526,91.526,0,0,1-8.876,38.294ZM259.846,31.181,64.642,324.947c-12.221,18.264-19.215,31.9-19.7,52.267a91.62,91.62,0,0,0,8.871,38.294H95.2a77.271,77.271,0,0,1-9.879-39.337c.309-16.137,6.988-26.514,16.116-40.218L303.182,31.181ZM137.936,343.516H374.018l-16.128-24.209H153.833L144.4,333.461c-2.161,3.236-4.39,6.7-6.459,10.055Z" transform="translate(50.263 34.875)" fill="#00b6ed"/>
        <path id="Pfad_1942" data-name="Pfad 1942" d="M496.469,415.507c1.1-2.367,1.639-3.778,2.487-6.033,3.227-8.52,7.1-20.183,6.811-32.344-.513-21.342-7.932-35.65-20.287-54.091L334.538,97.626,352,71.461,516.193,317.71c14.411,21.627,21.172,34.243,21.172,54.327,0,22.885-6.1,32.977-10.745,43.471Zm-92.141,0H441.9a74.445,74.445,0,0,0,10.381-39.266c-.29-15.028-6.4-24.652-15.545-38.377l-131.182-196.8-17.031,25.578,111.237,166.82c9.91,14.858,18.181,28.231,18.918,41.819a55.257,55.257,0,0,1-14.349,40.226ZM237.75,31.182,48.113,317.71C33.7,339.333,26.937,351.953,26.929,372.037c0,22.889,6.1,32.973,10.747,43.471h30.29c-.805-1.788-1.661-3.827-2.513-6.078a87.608,87.608,0,0,1-6.116-32.3c.51-21.342,7.933-35.65,20.277-54.1L273.539,31.182Zm92.014,0-203,306.683c-9.147,13.725-15.254,23.349-15.547,38.377a74.4,74.4,0,0,0,10.378,39.266h38.381a55.278,55.278,0,0,1-14.349-40.226,49.392,49.392,0,0,1,1.76-10.625H405.719a50.708,50.708,0,0,0-7.824-15.309H154.585c2.807-4.891,6.5-10.7,9.955-15.884l13.32-19.977H374.144l-10.75-16.129H188.613L364.7,31.181Z" transform="translate(30.119 34.875)" fill="#202b78"/>
      </g>
    </g>
  </g>
</svg>
